<svg xmlns="http://www.w3.org/2000/svg" viewBox="0 0 19.031 14.501">
  <path id="Discord_Icon" d="M16.138,1.362a15.946,15.946,0,0,1,2.814,10.828.062.062,0,0,1-.025.044,15.731,15.731,0,0,1-4.759,2.4.061.061,0,0,1-.067-.023,12.7,12.7,0,0,1-.972-1.58.061.061,0,0,1,.032-.085,9.724,9.724,0,0,0,1.485-.707.061.061,0,0,0,.005-.1c-.1-.075-.2-.153-.3-.232a.058.058,0,0,0-.062-.008,11.259,11.259,0,0,1-9.564,0,.059.059,0,0,0-.062.008c-.1.079-.2.156-.295.231a.061.061,0,0,0,.006.1,10.377,10.377,0,0,0,1.485.707.06.06,0,0,1,.033.084,11.3,11.3,0,0,1-.972,1.581.062.062,0,0,1-.067.022,15.783,15.783,0,0,1-4.752-2.4.065.065,0,0,1-.025-.044A16.052,16.052,0,0,1,2.893,1.362a.056.056,0,0,1,.025-.022A15.659,15.659,0,0,1,6.792.139a.061.061,0,0,1,.062.029,10.068,10.068,0,0,1,.49.99,14.5,14.5,0,0,1,4.351,0,10.966,10.966,0,0,1,.482-.99A.059.059,0,0,1,12.24.139a15.7,15.7,0,0,1,3.874,1.2.048.048,0,0,1,.025.023ZM8.073,8.111a1.809,1.809,0,0,0-1.71-1.918,1.819,1.819,0,0,0-1.71,1.918,1.829,1.829,0,0,0,1.71,1.917A1.819,1.819,0,0,0,8.073,8.111Zm6.324,0a1.809,1.809,0,0,0-1.71-1.918,1.819,1.819,0,0,0-1.71,1.918,1.829,1.829,0,0,0,1.71,1.917A1.814,1.814,0,0,0,14.4,8.111Z" transform="translate(-0.003 -0.138)" fill="currentColor"/>
</svg>
