<svg xmlns="http://www.w3.org/2000/svg" viewBox="0 0 15.803 17.316">
  <g id="noun-swap-1259605" transform="translate(14.721 1.196) rotate(90)">
    <path id="Path_358" d="M14.764,8.092a.357.357,0,0,0-.494.1l-.165.249-.661,1H.357a.357.357,0,0,0-.252.609l3.567,3.567a.357.357,0,0,0,.5-.5L1.218,10.154H13.635a.357.357,0,0,0,.3-.16l.932-1.407A.357.357,0,0,0,14.764,8.092ZM.16,5.629a.356.356,0,0,0,.494-.1L1.48,4.281H14.567a.357.357,0,0,0,.252-.609L11.252.1a.357.357,0,0,0-.5.5l2.958,2.958H1.289a.357.357,0,0,0-.3.16L.059,5.134A.357.357,0,0,0,.16,5.629Z" transform="translate(0 0)" fill="currentColor" stroke="currentColor" stroke-width="2"/>
  </g>
</svg>
